<svg width="24" height="24" viewBox="0 0 24 24" fill="none" xmlns="http://www.w3.org/2000/svg">
<path d="M7.66721 10.1923C6.65794 9.98687 5.89795 9.09453 5.89795 8.02437C5.89795 6.95421 6.65794 6.06187 7.66721 5.85645" stroke="#FF003C" stroke-width="1.2" stroke-miterlimit="10" stroke-linecap="round" stroke-linejoin="round"/>
<path d="M9.76855 5.85645C10.7778 6.06106 11.5378 6.95421 11.5378 8.02437C11.5378 9.09453 10.7778 9.98687 9.76855 10.1923" stroke="#FF003C" stroke-width="1.2" stroke-miterlimit="10" stroke-linecap="round" stroke-linejoin="round"/>
<path d="M7.6674 13.0504C5.07969 12.8369 3.04492 10.6681 3.04492 8.0252C3.04492 5.38228 5.07969 3.21354 7.6674 3" stroke="#777777" stroke-width="1.2" stroke-miterlimit="10" stroke-linecap="round" stroke-linejoin="round"/>
<path d="M9.76855 3C15.9281 3.13397 21.9374 6.14715 21.9374 6.14715L21.9552 9.30079C21.9552 9.30079 15.9289 12.9148 9.76855 13.0748" stroke="#777777" stroke-width="1.2" stroke-miterlimit="10" stroke-linecap="round" stroke-linejoin="round"/>
<path d="M10.3527 14.8955V15.2382C10.3527 15.7172 10.4493 16.1938 10.6555 16.6266C11.3571 18.0962 11.2393 19.0097 11.2393 19.0097C11.2393 20.2284 10.252 21.2158 9.03324 21.2158C7.81449 21.2158 6.82715 20.2284 6.82715 19.0097V14.8955" stroke="#777777" stroke-width="1.2" stroke-miterlimit="10" stroke-linecap="round" stroke-linejoin="round"/>
</svg>
