<svg width="24" height="24" viewBox="0 0 24 24" fill="none" xmlns="http://www.w3.org/2000/svg">
<path d="M10.7179 16.3592C9.25466 16.0618 8.15381 14.7686 8.15381 13.2182C8.15381 11.6677 9.25466 10.3737 10.7179 10.0771" stroke="#FF003C" stroke-width="1.2" stroke-miterlimit="10" stroke-linecap="round" stroke-linejoin="round"/>
<path d="M13.2817 10.0918C14.745 10.3892 15.8458 11.6824 15.8458 13.2328C15.8458 14.7832 14.745 16.0773 13.2817 16.3738" stroke="#FF003C" stroke-width="1.2" stroke-miterlimit="10" stroke-linecap="round" stroke-linejoin="round"/>
<path d="M10.1769 3.92383H13.8231C14.1282 3.92383 14.4154 4.06742 14.5983 4.31186L16.6154 7.00075H19.5769C20.9154 7.00075 22 8.08536 22 9.42383V17.6554C22 18.9939 20.9154 20.0785 19.5769 20.0785H4.42308C3.08461 20.0785 2 18.9939 2 17.6554V9.42383C2 8.08536 3.08461 7.00075 4.42308 7.00075H8.15384" stroke="#777777" stroke-width="1.2" stroke-miterlimit="10" stroke-linecap="round" stroke-linejoin="round"/>
</svg>
