<svg width="24" height="24" viewBox="0 0 24 24" fill="none" xmlns="http://www.w3.org/2000/svg">
<path d="M8.14662 17.5274C8.14662 19.3628 6.65868 20.8507 4.82331 20.8507C2.98794 20.8507 1.5 19.3628 1.5 17.5274C1.5 15.7932 2.82888 14.369 4.52426 14.2173C4.62321 14.2085 4.72289 14.2041 4.82404 14.2041C4.92666 14.2041 5.02854 14.2085 5.12896 14.218C6.82067 14.372 8.14662 15.7954 8.14662 17.5274Z" stroke="#777777" stroke-width="1.2" stroke-miterlimit="10" stroke-linecap="round" stroke-linejoin="round"/>
<path d="M2.48193 12.9188V11.5804C2.48193 10.8658 3.08517 10.2999 3.79836 10.3431C10.7785 10.7624 15.4058 15.1156 16.0061 19.8095C16.0772 20.3644 15.6506 20.8577 15.0906 20.8577H8.92259" stroke="#777777" stroke-width="1.2" stroke-miterlimit="10" stroke-linecap="round" stroke-linejoin="round"/>
<path d="M18.7705 20.8574H22.5002" stroke="#FF003C" stroke-width="1.2" stroke-miterlimit="10" stroke-linecap="round" stroke-linejoin="round"/>
<path d="M10.373 10.0675L11.463 8.65285C11.8866 8.10312 11.9739 7.36501 11.6902 6.73099L11.2783 5.8111C10.7168 4.55771 11.6345 3.1416 13.0081 3.1416C13.7755 3.1416 14.4674 3.60484 14.7599 4.31436L20.8531 19.0428" stroke="#777777" stroke-width="1.2" stroke-miterlimit="10" stroke-linecap="round" stroke-linejoin="round"/>
<path d="M3.96231 18.4381C3.48587 17.9616 3.48587 17.1883 3.96231 16.7119" stroke="#FF003C" stroke-width="1.2" stroke-miterlimit="10" stroke-linecap="round" stroke-linejoin="round"/>
<path d="M5.68311 18.4381C6.15954 17.9616 6.15954 17.1883 5.68311 16.7119" stroke="#FF003C" stroke-width="1.2" stroke-miterlimit="10" stroke-linecap="round" stroke-linejoin="round"/>
</svg>
