<svg width="24" height="24" viewBox="0 0 24 24" fill="none" xmlns="http://www.w3.org/2000/svg">
<path d="M9.55525 14.5237C8.28709 14.2659 7.33301 13.1451 7.33301 11.8014C7.33301 10.4577 8.28709 9.33614 9.55525 9.0791" stroke="#FF003C" stroke-width="1.2" stroke-miterlimit="10" stroke-linecap="round" stroke-linejoin="round"/>
<path d="M11.7773 9.09277C13.0455 9.35056 13.9996 10.4713 13.9996 11.8151C13.9996 13.1588 13.0455 14.2803 11.7773 14.5373" stroke="#FF003C" stroke-width="1.2" stroke-miterlimit="10" stroke-linecap="round" stroke-linejoin="round"/>
<path d="M13.9996 19.7484C12.9737 20.1765 11.8478 20.4128 10.6663 20.4128C5.87955 20.4128 1.99951 16.5327 1.99951 11.746C1.99951 6.95919 5.87955 3.0791 10.6663 3.0791C13.4411 3.0791 15.9115 4.38357 17.4982 6.41251" stroke="#777777" stroke-width="1.2" stroke-miterlimit="10" stroke-linecap="round" stroke-linejoin="round"/>
<path d="M16.6655 10.4131V11.3635C16.6655 12.0242 16.9766 12.6465 17.5055 13.0435L18.4922 13.7835C19.0211 14.1798 19.3322 14.8021 19.3322 15.4636V17.7473" stroke="#777777" stroke-width="1.2" stroke-miterlimit="10" stroke-linecap="round" stroke-linejoin="round"/>
<path d="M21.1595 13.0428C21.6884 12.6465 21.9996 12.0243 21.9996 11.3628V9.2531C21.9996 8.78939 21.6233 8.41309 21.1595 8.41309H17.9995" stroke="#777777" stroke-width="1.2" stroke-miterlimit="10" stroke-linecap="round" stroke-linejoin="round"/>
<path d="M17.3325 19.7471H21.3326" stroke="#777777" stroke-width="1.2" stroke-miterlimit="10" stroke-linecap="round" stroke-linejoin="round"/>
</svg>
