 <svg width="24" height="24" viewBox="0 0 24 24" fill="none" xmlns="http://www.w3.org/2000/svg">
                                <rect width="24" height="24" fill="white"></rect>
                                <path d="M12.3219 13.1031C9.07291 13.1031 6.4303 10.3879 6.4303 7.05157C6.4303 3.71525 9.07291 1 12.3219 1C15.5709 1 18.2135 3.71525 18.2135 7.05157C18.2135 10.3879 15.5709 13.1031 12.3219 13.1031ZM12.3219 2.48709C9.87174 2.48709 7.87807 4.53489 7.87807 7.05157C7.87807 9.56824 9.87174 11.616 12.3219 11.616C14.772 11.616 16.7657 9.56824 16.7657 7.05157C16.7657 4.53489 14.772 2.48709 12.3219 2.48709Z" fill="#020A0A"></path>
                                <path d="M19.9962 23.0001C19.5968 23.0001 19.2723 22.6668 19.2723 22.2565C19.2723 18.342 16.1715 15.157 12.3605 15.157C8.54942 15.157 5.44778 18.342 5.44778 22.2565C5.44778 22.6668 5.1233 23.0001 4.72389 23.0001C4.32447 23.0001 4 22.6668 4 22.2565C4 17.5215 7.75059 13.6699 12.3596 13.6699C16.9687 13.6699 20.7193 17.5224 20.7193 22.2565C20.7201 22.6668 20.3956 23.0001 19.9962 23.0001Z" fill="#020A0A"></path>
                                <path d="M16.7789 20.7449H13.0462C12.6467 20.7449 12.3223 20.4116 12.3223 20.0014C12.3223 19.5911 12.6467 19.2578 13.0462 19.2578H16.7789C17.1783 19.2578 17.5027 19.5911 17.5027 20.0014C17.5027 20.4116 17.1791 20.7449 16.7789 20.7449Z" fill="#FF003C"></path>
                                </svg>