<svg width="24" height="24" viewBox="0 0 24 24" fill="none" xmlns="http://www.w3.org/2000/svg">
<path d="M18.6827 22.6453H15.7573C15.3513 22.6453 15.0189 22.3244 15.0047 21.9193L14.5615 9.59738C14.5544 9.39261 14.6306 9.19404 14.7725 9.04689C14.9143 8.89973 15.1102 8.81641 15.315 8.81641H19.1268C19.3316 8.81641 19.5275 8.89973 19.6693 9.04689C19.8112 9.19404 19.8874 9.39261 19.8803 9.59738L19.4371 21.9193C19.4211 22.3244 19.0878 22.6453 18.6827 22.6453ZM16.4834 21.1383H17.9549L18.3441 10.3234H16.0942L16.4834 21.1383Z" fill="#323232"/>
<path d="M9.40508 22.9993H4.64563C3.48879 22.9993 2.54736 22.0579 2.54736 20.9011V13.2633C2.54736 12.8475 2.88511 12.5098 3.30086 12.5098H10.7499C11.1656 12.5098 11.5034 12.8475 11.5034 13.2633V20.9011C11.5034 22.0579 10.5619 22.9993 9.40508 22.9993ZM4.05436 14.0168V20.9011C4.05436 21.2273 4.31941 21.4924 4.64563 21.4924H9.40508C9.73131 21.4924 9.99636 21.2273 9.99636 20.9011V14.0168H4.05436Z" fill="#323232"/>
<path d="M9.654 13.9625H4.34139C3.92564 13.9625 3.58789 13.6247 3.58789 13.209V7.84139C3.58789 7.42564 3.92564 7.08789 4.34139 7.08789H9.654C10.0698 7.08789 10.4075 7.42564 10.4075 7.84139V13.209C10.4075 13.6247 10.0706 13.9625 9.654 13.9625ZM5.09489 12.4555H8.9005V8.59489H5.09489V12.4555Z" fill="#323232"/>
<path d="M8.73265 8.41759C8.72733 8.41759 8.72289 8.41759 8.71758 8.41759C8.30182 8.40961 7.97117 8.06566 7.97915 7.64991C8.04741 4.10049 7.16448 2.98265 6.70884 2.64491C5.75943 3.97727 5.92254 6.57196 6.08476 7.53999C6.15302 7.95042 5.87644 8.33869 5.46601 8.40784C5.05557 8.4761 4.6673 8.2004 4.59816 7.79086C4.56624 7.60293 3.84554 3.16526 5.98371 1.19908C6.13529 1.0599 6.33652 0.988982 6.54129 1.00139C6.8551 1.02178 9.6067 1.37903 9.48526 7.67916C9.47817 8.0896 9.14219 8.41759 8.73265 8.41759Z" fill="#323232"/>
<path d="M19.1247 10.323C18.9917 10.323 18.857 10.2875 18.7355 10.214C18.3791 9.99855 18.2657 9.53493 18.4811 9.17945C18.9908 8.33376 20.1601 5.8481 19.4562 4.52638C19.1309 3.9156 18.3659 3.57609 17.1824 3.51758C16.069 3.46262 15.3403 3.69842 15.0159 4.21966C14.2358 5.47136 15.4768 8.30894 15.9724 9.20427C16.1736 9.56773 16.0424 10.0269 15.679 10.2281C15.3155 10.4303 14.8572 10.2991 14.6551 9.93561C14.4149 9.5039 12.3494 5.65308 13.7358 3.42361C14.3705 2.4024 15.5557 1.92725 17.2569 2.01147C19.0077 2.09834 20.1955 2.70646 20.7877 3.81986C22.0146 6.12823 20.004 9.57482 19.77 9.95955C19.6282 10.1936 19.3791 10.323 19.1247 10.323Z" fill="#323232"/>
<path d="M19.0276 13.0148H15.6226C15.2069 13.0148 14.8691 12.6771 14.8691 12.2613C14.8691 11.8456 15.2069 11.5078 15.6226 11.5078H19.0276C19.4433 11.5078 19.7811 11.8456 19.7811 12.2613C19.7811 12.678 19.4442 13.0148 19.0276 13.0148Z" fill="#323232"/>
<path d="M5.78572 20.3979C5.36997 20.3979 5.03223 20.0602 5.03223 19.6444V15.5543C5.03223 15.1385 5.36997 14.8008 5.78572 14.8008C6.20148 14.8008 6.53922 15.1385 6.53922 15.5543V19.6444C6.53922 20.0611 6.20148 20.3979 5.78572 20.3979Z" fill="#FF003C"/>
</svg>
